M48
;GenerationSoftware,Autodesk,EAGLE,9.6.2*%
;CreationDate,2023-12-12T19:59:41Z*%
FMAT,2
ICI,OFF
METRIC,TZ,000.000
T9C0.350
T8C0.889
T7C0.920
T6C1.000
T5C1.400
T4C2.300
T3C2.500
T2C3.000
T1C3.175
%
G90
M71
T1
X3810Y3810
X123190Y3810
X123190Y97790
X3810Y97790
T2
X87630Y36195
X87630Y93345
X11430Y36195
X11430Y93345
T3
X85170Y22210
X49450Y22210
X39450Y22210
X95170Y22210
T4
X29040Y67220
X29040Y54080
T5
X26570Y26630
X73560Y26630
X73560Y21630
X61060Y21630
X61060Y26630
X26570Y21630
X14070Y21630
X14070Y26630
T6
X87630Y71120
X87630Y68580
X87630Y66040
X87630Y63500
X87630Y58420
X87630Y55880
X87630Y53340
X87630Y50800
X87630Y48260
X87630Y45720
X87630Y43180
X87630Y40640
X11430Y88900
X11430Y86360
X11430Y81280
X11430Y78740
X11430Y55880
X11430Y53340
X11430Y50800
X11430Y48260
X11430Y45720
X11430Y43180
X11430Y40640
X11430Y83820
X11430Y63500
X11430Y66040
X11430Y68580
X11430Y58420
X46950Y29210
X44450Y29210
X41950Y29210
X87630Y76200
X90170Y29210
X87670Y29210
X87630Y78740
X87630Y81280
X87630Y83820
X87630Y86360
X92670Y29210
X87630Y60960
X87630Y88900
X87630Y73660
X11430Y71120
X11430Y73660
X11430Y76200
X11430Y60960
T7
X31750Y64150
X31750Y57150
X31750Y59650
X31750Y61650
T8
X74650Y80840
X77190Y80840
X74650Y83380
X49250Y80840
X74650Y85920
X77190Y85920
X74650Y88460
X77190Y88460
X74650Y91000
X77190Y91000
X49250Y57980
X49250Y47820
X51790Y47820
X49250Y50360
X51790Y50360
X77190Y83380
X49250Y52900
X51790Y52900
X49250Y55440
X51790Y55440
X51790Y57980
X49250Y60520
X51790Y60520
X49250Y63060
X51790Y63060
X49250Y65600
X51790Y65600
X49250Y68140
X51790Y68140
X49250Y70680
X51790Y70680
X49250Y73220
X51790Y73220
X49250Y75760
X51790Y75760
X49250Y78300
X51790Y78300
X51790Y80840
X49250Y83380
X51790Y83380
X49250Y85920
X51790Y85920
X49250Y88460
X51790Y88460
X49250Y91000
X51790Y91000
X74650Y47820
X77190Y47820
X74650Y50360
X77190Y50360
X74650Y52900
X77190Y52900
X74650Y55440
X77190Y60520
X77190Y55440
X74650Y57980
X77190Y57980
X74650Y60520
X74650Y63060
X77190Y63060
X74650Y65600
X77190Y65600
X74650Y68140
X77190Y68140
X74650Y70680
X77190Y70680
X74650Y73220
X77190Y73220
X74650Y75760
X77190Y75760
X74650Y78300
X77190Y78300
T9
X33274Y26670
X5204Y22860
X110490Y55880
X110490Y77470
X110490Y67310
X53594Y26416
M30