G04 EAGLE Gerber RS-274X export*
G75*
%MOMM*%
%FSLAX34Y34*%
%LPD*%
%INTop Copper*%
%IPPOS*%
%AMOC8*
5,1,8,0,0,1.08239X$1,22.5*%
G01*
%ADD10R,1.524000X1.524000*%
%ADD11P,1.649562X8X112.500000*%
%ADD12R,1.676400X1.676400*%
%ADD13C,1.676400*%
%ADD14C,4.016000*%
%ADD15R,0.800000X0.800000*%
%ADD16R,1.428000X1.428000*%
%ADD17C,1.428000*%
%ADD18C,3.316000*%
%ADD19C,1.508000*%
%ADD20R,0.949959X1.031241*%
%ADD21C,2.100000*%
%ADD22C,1.016000*%
%ADD23C,4.445000*%
%ADD24C,0.254000*%
%ADD25C,0.756400*%

G36*
X1259624Y1014088D02*
X1259624Y1014088D01*
X1259617Y1014207D01*
X1259604Y1014245D01*
X1259599Y1014286D01*
X1259556Y1014396D01*
X1259519Y1014509D01*
X1259497Y1014544D01*
X1259482Y1014581D01*
X1259413Y1014677D01*
X1259349Y1014778D01*
X1259319Y1014806D01*
X1259296Y1014839D01*
X1259204Y1014915D01*
X1259117Y1014996D01*
X1259082Y1015016D01*
X1259051Y1015041D01*
X1258943Y1015092D01*
X1258839Y1015150D01*
X1258799Y1015160D01*
X1258763Y1015177D01*
X1258646Y1015199D01*
X1258531Y1015229D01*
X1258471Y1015233D01*
X1258451Y1015237D01*
X1258430Y1015235D01*
X1258370Y1015239D01*
X11430Y1015239D01*
X11312Y1015224D01*
X11193Y1015217D01*
X11155Y1015204D01*
X11114Y1015199D01*
X11004Y1015156D01*
X10891Y1015119D01*
X10856Y1015097D01*
X10819Y1015082D01*
X10723Y1015013D01*
X10622Y1014949D01*
X10594Y1014919D01*
X10561Y1014896D01*
X10485Y1014804D01*
X10404Y1014717D01*
X10384Y1014682D01*
X10359Y1014651D01*
X10308Y1014543D01*
X10250Y1014439D01*
X10240Y1014399D01*
X10223Y1014363D01*
X10201Y1014246D01*
X10171Y1014131D01*
X10167Y1014071D01*
X10163Y1014051D01*
X10165Y1014030D01*
X10161Y1013970D01*
X10161Y237374D01*
X10176Y237249D01*
X10186Y237124D01*
X10196Y237092D01*
X10201Y237058D01*
X10247Y236942D01*
X10287Y236822D01*
X10305Y236794D01*
X10318Y236763D01*
X10391Y236661D01*
X10460Y236555D01*
X10485Y236533D01*
X10504Y236505D01*
X10601Y236425D01*
X10694Y236340D01*
X10724Y236324D01*
X10749Y236302D01*
X10863Y236249D01*
X10974Y236189D01*
X11007Y236181D01*
X11037Y236167D01*
X11160Y236143D01*
X11283Y236113D01*
X11316Y236113D01*
X11349Y236107D01*
X11475Y236115D01*
X11601Y236116D01*
X11649Y236126D01*
X11667Y236127D01*
X11687Y236134D01*
X11759Y236148D01*
X12315Y236297D01*
X15025Y236297D01*
X15025Y229705D01*
X15040Y229587D01*
X15047Y229468D01*
X15060Y229430D01*
X15065Y229390D01*
X15109Y229279D01*
X15145Y229166D01*
X15167Y229131D01*
X15182Y229094D01*
X15252Y228998D01*
X15315Y228897D01*
X15345Y228869D01*
X15369Y228837D01*
X15460Y228761D01*
X15547Y228679D01*
X15582Y228660D01*
X15614Y228634D01*
X15678Y228604D01*
X15587Y228537D01*
X15486Y228474D01*
X15458Y228444D01*
X15426Y228420D01*
X15350Y228329D01*
X15268Y228242D01*
X15249Y228207D01*
X15223Y228175D01*
X15172Y228068D01*
X15115Y227964D01*
X15104Y227924D01*
X15087Y227888D01*
X15065Y227771D01*
X15035Y227656D01*
X15031Y227595D01*
X15027Y227575D01*
X15029Y227555D01*
X15025Y227495D01*
X15025Y220903D01*
X12315Y220903D01*
X11759Y221052D01*
X11634Y221069D01*
X11510Y221093D01*
X11477Y221091D01*
X11443Y221095D01*
X11318Y221081D01*
X11193Y221073D01*
X11161Y221063D01*
X11128Y221059D01*
X11010Y221014D01*
X10891Y220975D01*
X10862Y220957D01*
X10831Y220945D01*
X10728Y220872D01*
X10622Y220805D01*
X10599Y220780D01*
X10571Y220761D01*
X10490Y220665D01*
X10404Y220573D01*
X10388Y220544D01*
X10366Y220518D01*
X10311Y220405D01*
X10250Y220295D01*
X10242Y220262D01*
X10227Y220232D01*
X10202Y220108D01*
X10171Y219987D01*
X10168Y219938D01*
X10164Y219920D01*
X10165Y219898D01*
X10161Y219826D01*
X10161Y11430D01*
X10176Y11312D01*
X10183Y11193D01*
X10196Y11155D01*
X10201Y11114D01*
X10244Y11004D01*
X10281Y10891D01*
X10303Y10856D01*
X10318Y10819D01*
X10387Y10723D01*
X10451Y10622D01*
X10481Y10594D01*
X10504Y10561D01*
X10596Y10485D01*
X10683Y10404D01*
X10718Y10384D01*
X10749Y10359D01*
X10857Y10308D01*
X10961Y10250D01*
X11001Y10240D01*
X11037Y10223D01*
X11154Y10201D01*
X11269Y10171D01*
X11329Y10167D01*
X11349Y10163D01*
X11370Y10165D01*
X11430Y10161D01*
X1258370Y10161D01*
X1258488Y10176D01*
X1258607Y10183D01*
X1258645Y10196D01*
X1258686Y10201D01*
X1258796Y10244D01*
X1258909Y10281D01*
X1258944Y10303D01*
X1258981Y10318D01*
X1259077Y10387D01*
X1259178Y10451D01*
X1259206Y10481D01*
X1259239Y10504D01*
X1259315Y10596D01*
X1259396Y10683D01*
X1259416Y10718D01*
X1259441Y10749D01*
X1259492Y10857D01*
X1259550Y10961D01*
X1259560Y11001D01*
X1259577Y11037D01*
X1259599Y11154D01*
X1259629Y11269D01*
X1259633Y11329D01*
X1259637Y11349D01*
X1259635Y11370D01*
X1259639Y11430D01*
X1259639Y1013970D01*
X1259624Y1014088D01*
G37*
%LPC*%
G36*
X32385Y951231D02*
X32385Y951231D01*
X32402Y951233D01*
X32419Y951231D01*
X32559Y951253D01*
X32700Y951271D01*
X32716Y951277D01*
X32733Y951280D01*
X32864Y951335D01*
X32996Y951388D01*
X33010Y951398D01*
X33025Y951404D01*
X33138Y951491D01*
X33253Y951574D01*
X33264Y951588D01*
X33278Y951598D01*
X33365Y951710D01*
X33456Y951819D01*
X33463Y951835D01*
X33474Y951848D01*
X33531Y951979D01*
X33591Y952107D01*
X33595Y952124D01*
X33602Y952140D01*
X33625Y952281D01*
X33651Y952420D01*
X33650Y952437D01*
X33653Y952454D01*
X33640Y952595D01*
X33631Y952737D01*
X33626Y952753D01*
X33625Y952770D01*
X33577Y952904D01*
X33533Y953039D01*
X33524Y953054D01*
X33519Y953070D01*
X33439Y953188D01*
X33363Y953308D01*
X33351Y953320D01*
X33341Y953334D01*
X33235Y953429D01*
X33132Y953526D01*
X33117Y953534D01*
X33104Y953546D01*
X32978Y953611D01*
X32853Y953680D01*
X32837Y953684D01*
X32821Y953692D01*
X32667Y953737D01*
X31233Y954065D01*
X28608Y954983D01*
X26101Y956190D01*
X23746Y957670D01*
X21571Y959405D01*
X19605Y961371D01*
X17870Y963546D01*
X16390Y965901D01*
X15183Y968408D01*
X14265Y971033D01*
X13646Y973745D01*
X13464Y975361D01*
X36830Y975361D01*
X36948Y975376D01*
X37067Y975383D01*
X37105Y975396D01*
X37145Y975401D01*
X37256Y975444D01*
X37369Y975481D01*
X37403Y975503D01*
X37441Y975518D01*
X37537Y975588D01*
X37638Y975651D01*
X37666Y975681D01*
X37698Y975704D01*
X37774Y975796D01*
X37856Y975883D01*
X37875Y975918D01*
X37901Y975949D01*
X37952Y976057D01*
X38009Y976161D01*
X38020Y976201D01*
X38037Y976237D01*
X38059Y976354D01*
X38089Y976469D01*
X38093Y976530D01*
X38097Y976550D01*
X38095Y976570D01*
X38099Y976630D01*
X38099Y977901D01*
X38101Y977901D01*
X38101Y976630D01*
X38116Y976512D01*
X38123Y976393D01*
X38136Y976355D01*
X38141Y976314D01*
X38185Y976204D01*
X38221Y976091D01*
X38243Y976056D01*
X38258Y976019D01*
X38328Y975923D01*
X38391Y975822D01*
X38421Y975794D01*
X38445Y975761D01*
X38536Y975686D01*
X38623Y975604D01*
X38658Y975584D01*
X38690Y975559D01*
X38797Y975508D01*
X38902Y975450D01*
X38941Y975440D01*
X38977Y975423D01*
X39094Y975401D01*
X39209Y975371D01*
X39270Y975367D01*
X39290Y975363D01*
X39310Y975365D01*
X39370Y975361D01*
X62736Y975361D01*
X62554Y973745D01*
X61935Y971033D01*
X61017Y968408D01*
X59810Y965901D01*
X58330Y963546D01*
X56595Y961371D01*
X54629Y959405D01*
X52454Y957670D01*
X50099Y956190D01*
X47592Y954983D01*
X44967Y954065D01*
X43533Y953737D01*
X43517Y953732D01*
X43500Y953729D01*
X43368Y953677D01*
X43234Y953628D01*
X43220Y953619D01*
X43204Y953612D01*
X43089Y953529D01*
X42972Y953449D01*
X42961Y953436D01*
X42947Y953426D01*
X42856Y953316D01*
X42763Y953209D01*
X42755Y953194D01*
X42744Y953181D01*
X42684Y953052D01*
X42620Y952925D01*
X42616Y952908D01*
X42609Y952893D01*
X42582Y952754D01*
X42551Y952614D01*
X42552Y952597D01*
X42549Y952581D01*
X42558Y952439D01*
X42563Y952297D01*
X42567Y952280D01*
X42569Y952263D01*
X42612Y952128D01*
X42653Y951992D01*
X42661Y951977D01*
X42667Y951961D01*
X42743Y951840D01*
X42815Y951718D01*
X42828Y951706D01*
X42837Y951692D01*
X42941Y951594D01*
X43041Y951494D01*
X43056Y951486D01*
X43068Y951474D01*
X43193Y951405D01*
X43315Y951333D01*
X43332Y951329D01*
X43347Y951320D01*
X43484Y951285D01*
X43621Y951246D01*
X43638Y951245D01*
X43655Y951241D01*
X43815Y951231D01*
X76200Y951231D01*
X76318Y951246D01*
X76437Y951253D01*
X76475Y951266D01*
X76516Y951271D01*
X76626Y951314D01*
X76739Y951351D01*
X76774Y951373D01*
X76811Y951388D01*
X76907Y951458D01*
X77008Y951521D01*
X77036Y951551D01*
X77069Y951574D01*
X77145Y951666D01*
X77226Y951753D01*
X77246Y951788D01*
X77271Y951819D01*
X77322Y951927D01*
X77380Y952031D01*
X77390Y952071D01*
X77407Y952107D01*
X77429Y952224D01*
X77459Y952339D01*
X77463Y952400D01*
X77467Y952420D01*
X77465Y952440D01*
X77469Y952500D01*
X77469Y989331D01*
X1205231Y989331D01*
X1205231Y983615D01*
X1205233Y983598D01*
X1205231Y983581D01*
X1205253Y983441D01*
X1205271Y983300D01*
X1205277Y983284D01*
X1205280Y983267D01*
X1205335Y983136D01*
X1205388Y983004D01*
X1205398Y982990D01*
X1205404Y982975D01*
X1205491Y982862D01*
X1205574Y982747D01*
X1205588Y982736D01*
X1205598Y982722D01*
X1205710Y982635D01*
X1205819Y982544D01*
X1205835Y982537D01*
X1205848Y982526D01*
X1205979Y982469D01*
X1206107Y982409D01*
X1206124Y982405D01*
X1206140Y982398D01*
X1206280Y982375D01*
X1206420Y982349D01*
X1206437Y982350D01*
X1206454Y982347D01*
X1206595Y982360D01*
X1206737Y982368D01*
X1206753Y982374D01*
X1206770Y982375D01*
X1206904Y982423D01*
X1207039Y982467D01*
X1207054Y982476D01*
X1207070Y982481D01*
X1207188Y982561D01*
X1207308Y982637D01*
X1207320Y982649D01*
X1207334Y982659D01*
X1207428Y982765D01*
X1207526Y982868D01*
X1207534Y982883D01*
X1207546Y982896D01*
X1207611Y983022D01*
X1207680Y983147D01*
X1207684Y983163D01*
X1207692Y983179D01*
X1207737Y983333D01*
X1208065Y984767D01*
X1208983Y987392D01*
X1210190Y989899D01*
X1211670Y992254D01*
X1213405Y994429D01*
X1215371Y996395D01*
X1217546Y998130D01*
X1219901Y999610D01*
X1222408Y1000817D01*
X1225033Y1001735D01*
X1227745Y1002354D01*
X1229361Y1002536D01*
X1229361Y979170D01*
X1229376Y979052D01*
X1229383Y978933D01*
X1229396Y978895D01*
X1229401Y978855D01*
X1229444Y978744D01*
X1229481Y978631D01*
X1229503Y978597D01*
X1229518Y978559D01*
X1229588Y978463D01*
X1229651Y978362D01*
X1229681Y978334D01*
X1229704Y978302D01*
X1229796Y978226D01*
X1229883Y978144D01*
X1229918Y978125D01*
X1229949Y978099D01*
X1230057Y978048D01*
X1230161Y977991D01*
X1230201Y977980D01*
X1230237Y977963D01*
X1230354Y977941D01*
X1230469Y977911D01*
X1230530Y977907D01*
X1230550Y977903D01*
X1230570Y977905D01*
X1230630Y977901D01*
X1231901Y977901D01*
X1231901Y976630D01*
X1231916Y976512D01*
X1231923Y976393D01*
X1231936Y976355D01*
X1231941Y976314D01*
X1231985Y976204D01*
X1232021Y976091D01*
X1232043Y976056D01*
X1232058Y976019D01*
X1232128Y975923D01*
X1232191Y975822D01*
X1232221Y975794D01*
X1232245Y975761D01*
X1232336Y975686D01*
X1232423Y975604D01*
X1232458Y975584D01*
X1232490Y975559D01*
X1232597Y975508D01*
X1232702Y975450D01*
X1232741Y975440D01*
X1232777Y975423D01*
X1232894Y975401D01*
X1233009Y975371D01*
X1233070Y975367D01*
X1233090Y975363D01*
X1233110Y975365D01*
X1233170Y975361D01*
X1256536Y975361D01*
X1256354Y973745D01*
X1255735Y971033D01*
X1254817Y968408D01*
X1253610Y965901D01*
X1252130Y963546D01*
X1250395Y961371D01*
X1248429Y959405D01*
X1246254Y957670D01*
X1243899Y956190D01*
X1241392Y954983D01*
X1238767Y954065D01*
X1237333Y953737D01*
X1237317Y953732D01*
X1237300Y953729D01*
X1237168Y953677D01*
X1237034Y953628D01*
X1237020Y953619D01*
X1237004Y953612D01*
X1236889Y953529D01*
X1236772Y953449D01*
X1236761Y953436D01*
X1236747Y953426D01*
X1236656Y953316D01*
X1236563Y953209D01*
X1236555Y953194D01*
X1236544Y953181D01*
X1236484Y953052D01*
X1236419Y952925D01*
X1236416Y952908D01*
X1236409Y952893D01*
X1236382Y952753D01*
X1236351Y952614D01*
X1236352Y952597D01*
X1236349Y952581D01*
X1236358Y952438D01*
X1236363Y952297D01*
X1236367Y952280D01*
X1236368Y952263D01*
X1236412Y952128D01*
X1236452Y951992D01*
X1236461Y951977D01*
X1236467Y951961D01*
X1236542Y951841D01*
X1236615Y951718D01*
X1236628Y951706D01*
X1236637Y951692D01*
X1236740Y951594D01*
X1236841Y951494D01*
X1236856Y951486D01*
X1236868Y951474D01*
X1236993Y951405D01*
X1237115Y951333D01*
X1237132Y951329D01*
X1237147Y951320D01*
X1237284Y951285D01*
X1237421Y951246D01*
X1237438Y951245D01*
X1237455Y951241D01*
X1237615Y951231D01*
X1243331Y951231D01*
X1243331Y64769D01*
X1237615Y64769D01*
X1237598Y64767D01*
X1237581Y64769D01*
X1237441Y64747D01*
X1237300Y64729D01*
X1237284Y64723D01*
X1237267Y64721D01*
X1237136Y64665D01*
X1237004Y64612D01*
X1236990Y64602D01*
X1236975Y64596D01*
X1236862Y64509D01*
X1236747Y64426D01*
X1236736Y64412D01*
X1236722Y64402D01*
X1236635Y64290D01*
X1236544Y64181D01*
X1236537Y64165D01*
X1236526Y64152D01*
X1236469Y64021D01*
X1236409Y63893D01*
X1236405Y63876D01*
X1236398Y63860D01*
X1236375Y63719D01*
X1236349Y63581D01*
X1236350Y63563D01*
X1236347Y63547D01*
X1236360Y63404D01*
X1236368Y63263D01*
X1236374Y63247D01*
X1236375Y63230D01*
X1236423Y63095D01*
X1236467Y62961D01*
X1236476Y62946D01*
X1236481Y62930D01*
X1236561Y62812D01*
X1236637Y62692D01*
X1236649Y62680D01*
X1236659Y62666D01*
X1236765Y62571D01*
X1236868Y62474D01*
X1236883Y62466D01*
X1236896Y62454D01*
X1237022Y62389D01*
X1237147Y62320D01*
X1237163Y62316D01*
X1237179Y62308D01*
X1237333Y62263D01*
X1238767Y61935D01*
X1241392Y61017D01*
X1243899Y59810D01*
X1246254Y58330D01*
X1248429Y56595D01*
X1250395Y54629D01*
X1252130Y52454D01*
X1253610Y50099D01*
X1254817Y47592D01*
X1255735Y44967D01*
X1256354Y42255D01*
X1256536Y40639D01*
X1233170Y40639D01*
X1233052Y40624D01*
X1232933Y40617D01*
X1232895Y40604D01*
X1232855Y40599D01*
X1232744Y40556D01*
X1232631Y40519D01*
X1232597Y40497D01*
X1232559Y40482D01*
X1232463Y40412D01*
X1232362Y40349D01*
X1232334Y40319D01*
X1232302Y40295D01*
X1232226Y40204D01*
X1232144Y40117D01*
X1232125Y40082D01*
X1232099Y40051D01*
X1232048Y39943D01*
X1231991Y39839D01*
X1231980Y39799D01*
X1231963Y39763D01*
X1231941Y39646D01*
X1231911Y39531D01*
X1231907Y39470D01*
X1231903Y39450D01*
X1231904Y39438D01*
X1231903Y39434D01*
X1231904Y39422D01*
X1231901Y39370D01*
X1231901Y38099D01*
X1231899Y38099D01*
X1231899Y39370D01*
X1231884Y39488D01*
X1231877Y39607D01*
X1231864Y39645D01*
X1231859Y39685D01*
X1231815Y39796D01*
X1231779Y39909D01*
X1231757Y39944D01*
X1231742Y39981D01*
X1231672Y40077D01*
X1231609Y40178D01*
X1231579Y40206D01*
X1231555Y40239D01*
X1231464Y40314D01*
X1231377Y40396D01*
X1231342Y40416D01*
X1231310Y40441D01*
X1231203Y40492D01*
X1231098Y40550D01*
X1231059Y40560D01*
X1231023Y40577D01*
X1230906Y40599D01*
X1230791Y40629D01*
X1230730Y40633D01*
X1230710Y40637D01*
X1230690Y40635D01*
X1230630Y40639D01*
X1207264Y40639D01*
X1207446Y42255D01*
X1208065Y44967D01*
X1208983Y47592D01*
X1210190Y50099D01*
X1211670Y52454D01*
X1213405Y54629D01*
X1215371Y56595D01*
X1217546Y58330D01*
X1219901Y59810D01*
X1222408Y61017D01*
X1225033Y61935D01*
X1226467Y62263D01*
X1226483Y62268D01*
X1226500Y62271D01*
X1226632Y62323D01*
X1226766Y62372D01*
X1226780Y62381D01*
X1226796Y62388D01*
X1226911Y62471D01*
X1227028Y62552D01*
X1227039Y62564D01*
X1227053Y62574D01*
X1227144Y62684D01*
X1227237Y62791D01*
X1227245Y62806D01*
X1227256Y62819D01*
X1227316Y62948D01*
X1227381Y63075D01*
X1227384Y63092D01*
X1227391Y63107D01*
X1227418Y63246D01*
X1227449Y63386D01*
X1227448Y63403D01*
X1227451Y63420D01*
X1227442Y63561D01*
X1227437Y63703D01*
X1227433Y63720D01*
X1227432Y63737D01*
X1227388Y63872D01*
X1227348Y64008D01*
X1227339Y64023D01*
X1227333Y64039D01*
X1227257Y64160D01*
X1227185Y64282D01*
X1227173Y64294D01*
X1227163Y64308D01*
X1227060Y64406D01*
X1226959Y64506D01*
X1226944Y64514D01*
X1226932Y64526D01*
X1226808Y64594D01*
X1226685Y64667D01*
X1226668Y64671D01*
X1226653Y64680D01*
X1226516Y64715D01*
X1226379Y64754D01*
X1226362Y64755D01*
X1226345Y64759D01*
X1226185Y64769D01*
X43815Y64769D01*
X43798Y64767D01*
X43781Y64769D01*
X43641Y64747D01*
X43500Y64729D01*
X43484Y64723D01*
X43467Y64721D01*
X43336Y64665D01*
X43204Y64612D01*
X43190Y64602D01*
X43175Y64596D01*
X43062Y64509D01*
X42947Y64426D01*
X42936Y64412D01*
X42922Y64402D01*
X42835Y64290D01*
X42744Y64181D01*
X42737Y64165D01*
X42726Y64152D01*
X42669Y64021D01*
X42609Y63893D01*
X42605Y63876D01*
X42598Y63860D01*
X42575Y63719D01*
X42549Y63581D01*
X42550Y63563D01*
X42547Y63547D01*
X42560Y63404D01*
X42569Y63263D01*
X42574Y63247D01*
X42575Y63230D01*
X42623Y63095D01*
X42667Y62961D01*
X42676Y62946D01*
X42681Y62930D01*
X42761Y62812D01*
X42837Y62692D01*
X42849Y62680D01*
X42859Y62666D01*
X42964Y62572D01*
X43068Y62474D01*
X43083Y62466D01*
X43096Y62454D01*
X43222Y62389D01*
X43347Y62320D01*
X43363Y62316D01*
X43379Y62308D01*
X43533Y62263D01*
X44967Y61935D01*
X47592Y61017D01*
X50099Y59810D01*
X52454Y58330D01*
X54629Y56595D01*
X56595Y54629D01*
X58330Y52454D01*
X59810Y50099D01*
X61017Y47592D01*
X61935Y44967D01*
X62554Y42255D01*
X62736Y40639D01*
X39370Y40639D01*
X39252Y40624D01*
X39133Y40617D01*
X39095Y40604D01*
X39055Y40599D01*
X38944Y40556D01*
X38831Y40519D01*
X38797Y40497D01*
X38759Y40482D01*
X38663Y40412D01*
X38562Y40349D01*
X38534Y40319D01*
X38502Y40295D01*
X38426Y40204D01*
X38344Y40117D01*
X38325Y40082D01*
X38299Y40051D01*
X38248Y39943D01*
X38191Y39839D01*
X38180Y39799D01*
X38163Y39763D01*
X38141Y39646D01*
X38111Y39531D01*
X38107Y39470D01*
X38103Y39450D01*
X38104Y39438D01*
X38103Y39434D01*
X38104Y39422D01*
X38101Y39370D01*
X38101Y38099D01*
X38099Y38099D01*
X38099Y39370D01*
X38084Y39488D01*
X38077Y39607D01*
X38064Y39645D01*
X38059Y39685D01*
X38015Y39796D01*
X37979Y39909D01*
X37957Y39944D01*
X37942Y39981D01*
X37872Y40077D01*
X37809Y40178D01*
X37779Y40206D01*
X37755Y40239D01*
X37664Y40314D01*
X37577Y40396D01*
X37542Y40416D01*
X37510Y40441D01*
X37403Y40492D01*
X37298Y40550D01*
X37259Y40560D01*
X37223Y40577D01*
X37106Y40599D01*
X36991Y40629D01*
X36930Y40633D01*
X36910Y40637D01*
X36890Y40635D01*
X36830Y40639D01*
X13464Y40639D01*
X13646Y42255D01*
X14265Y44967D01*
X15183Y47592D01*
X16390Y50099D01*
X17870Y52454D01*
X19605Y54629D01*
X21571Y56595D01*
X23746Y58330D01*
X26101Y59810D01*
X28608Y61017D01*
X31233Y61935D01*
X32667Y62263D01*
X32683Y62268D01*
X32700Y62271D01*
X32832Y62323D01*
X32966Y62372D01*
X32980Y62381D01*
X32996Y62388D01*
X33111Y62471D01*
X33228Y62552D01*
X33239Y62564D01*
X33253Y62574D01*
X33344Y62684D01*
X33437Y62791D01*
X33445Y62806D01*
X33456Y62819D01*
X33516Y62948D01*
X33580Y63075D01*
X33584Y63092D01*
X33591Y63107D01*
X33618Y63246D01*
X33649Y63386D01*
X33648Y63403D01*
X33651Y63420D01*
X33642Y63561D01*
X33637Y63703D01*
X33633Y63720D01*
X33631Y63737D01*
X33588Y63872D01*
X33548Y64008D01*
X33539Y64023D01*
X33533Y64039D01*
X33458Y64159D01*
X33385Y64282D01*
X33372Y64294D01*
X33363Y64308D01*
X33260Y64406D01*
X33159Y64506D01*
X33144Y64514D01*
X33132Y64526D01*
X33008Y64594D01*
X32885Y64667D01*
X32868Y64671D01*
X32853Y64680D01*
X32716Y64715D01*
X32579Y64754D01*
X32562Y64755D01*
X32545Y64759D01*
X32385Y64769D01*
X26669Y64769D01*
X26669Y221455D01*
X26651Y221599D01*
X26636Y221745D01*
X26631Y221757D01*
X26629Y221771D01*
X26576Y221906D01*
X26525Y222043D01*
X26517Y222054D01*
X26512Y222066D01*
X26427Y222184D01*
X26344Y222304D01*
X26333Y222313D01*
X26326Y222324D01*
X26214Y222416D01*
X26103Y222512D01*
X26091Y222518D01*
X26081Y222527D01*
X25949Y222588D01*
X25818Y222654D01*
X25805Y222656D01*
X25793Y222662D01*
X25650Y222689D01*
X25507Y222720D01*
X25494Y222719D01*
X25481Y222722D01*
X25336Y222713D01*
X25190Y222707D01*
X25176Y222703D01*
X25163Y222702D01*
X25025Y222657D01*
X24885Y222615D01*
X24873Y222608D01*
X24861Y222604D01*
X24738Y222526D01*
X24613Y222451D01*
X24603Y222441D01*
X24592Y222434D01*
X24492Y222328D01*
X24390Y222224D01*
X24380Y222208D01*
X24374Y222202D01*
X24366Y222187D01*
X24301Y222090D01*
X24182Y221884D01*
X23709Y221411D01*
X23130Y221076D01*
X22483Y220903D01*
X19773Y220903D01*
X19773Y227495D01*
X19758Y227613D01*
X19751Y227732D01*
X19738Y227770D01*
X19733Y227810D01*
X19689Y227921D01*
X19653Y228034D01*
X19631Y228069D01*
X19616Y228106D01*
X19546Y228202D01*
X19483Y228303D01*
X19453Y228331D01*
X19429Y228363D01*
X19338Y228439D01*
X19251Y228521D01*
X19216Y228540D01*
X19184Y228566D01*
X19120Y228596D01*
X19211Y228663D01*
X19312Y228726D01*
X19340Y228756D01*
X19372Y228780D01*
X19448Y228871D01*
X19530Y228958D01*
X19549Y228993D01*
X19575Y229025D01*
X19626Y229132D01*
X19683Y229236D01*
X19694Y229276D01*
X19711Y229312D01*
X19733Y229429D01*
X19763Y229544D01*
X19767Y229605D01*
X19771Y229625D01*
X19769Y229645D01*
X19770Y229658D01*
X19771Y229660D01*
X19770Y229663D01*
X19773Y229705D01*
X19773Y236297D01*
X22483Y236297D01*
X23130Y236124D01*
X23709Y235789D01*
X24182Y235316D01*
X24301Y235110D01*
X24389Y234994D01*
X24474Y234876D01*
X24485Y234868D01*
X24493Y234857D01*
X24607Y234767D01*
X24719Y234673D01*
X24732Y234668D01*
X24742Y234659D01*
X24876Y234600D01*
X25007Y234538D01*
X25020Y234535D01*
X25033Y234530D01*
X25177Y234505D01*
X25320Y234478D01*
X25333Y234479D01*
X25346Y234477D01*
X25492Y234489D01*
X25637Y234498D01*
X25650Y234502D01*
X25663Y234503D01*
X25801Y234551D01*
X25939Y234596D01*
X25951Y234603D01*
X25964Y234608D01*
X26085Y234688D01*
X26208Y234766D01*
X26217Y234776D01*
X26229Y234783D01*
X26326Y234891D01*
X26426Y234998D01*
X26433Y235010D01*
X26442Y235020D01*
X26509Y235149D01*
X26580Y235276D01*
X26583Y235289D01*
X26589Y235301D01*
X26623Y235443D01*
X26659Y235584D01*
X26660Y235602D01*
X26662Y235611D01*
X26662Y235628D01*
X26669Y235745D01*
X26669Y951231D01*
X32385Y951231D01*
G37*
%LPD*%
%LPC*%
G36*
X1234439Y980439D02*
X1234439Y980439D01*
X1234439Y1002536D01*
X1236055Y1002354D01*
X1238767Y1001735D01*
X1241392Y1000817D01*
X1243899Y999610D01*
X1246254Y998130D01*
X1248429Y996395D01*
X1250395Y994429D01*
X1252130Y992254D01*
X1253610Y989899D01*
X1254817Y987392D01*
X1255735Y984767D01*
X1256354Y982055D01*
X1256536Y980439D01*
X1234439Y980439D01*
G37*
%LPD*%
%LPC*%
G36*
X40639Y980439D02*
X40639Y980439D01*
X40639Y1002536D01*
X42255Y1002354D01*
X44967Y1001735D01*
X47592Y1000817D01*
X50099Y999610D01*
X52454Y998130D01*
X54629Y996395D01*
X56595Y994429D01*
X58330Y992254D01*
X59810Y989899D01*
X61017Y987392D01*
X61935Y984767D01*
X62554Y982055D01*
X62736Y980439D01*
X40639Y980439D01*
G37*
%LPD*%
%LPC*%
G36*
X13464Y980439D02*
X13464Y980439D01*
X13646Y982055D01*
X14265Y984767D01*
X15183Y987392D01*
X16390Y989899D01*
X17870Y992254D01*
X19605Y994429D01*
X21571Y996395D01*
X23746Y998130D01*
X26101Y999610D01*
X28608Y1000817D01*
X31233Y1001735D01*
X33945Y1002354D01*
X35561Y1002536D01*
X35561Y980439D01*
X13464Y980439D01*
G37*
%LPD*%
%LPC*%
G36*
X40639Y35561D02*
X40639Y35561D01*
X62736Y35561D01*
X62554Y33945D01*
X61935Y31233D01*
X61017Y28608D01*
X59810Y26101D01*
X58330Y23746D01*
X56595Y21571D01*
X54629Y19605D01*
X52454Y17870D01*
X50099Y16390D01*
X47592Y15183D01*
X44967Y14265D01*
X42255Y13646D01*
X40639Y13464D01*
X40639Y35561D01*
G37*
%LPD*%
%LPC*%
G36*
X1234439Y35561D02*
X1234439Y35561D01*
X1256536Y35561D01*
X1256354Y33945D01*
X1255735Y31233D01*
X1254817Y28608D01*
X1253610Y26101D01*
X1252130Y23746D01*
X1250395Y21571D01*
X1248429Y19605D01*
X1246254Y17870D01*
X1243899Y16390D01*
X1241392Y15183D01*
X1238767Y14265D01*
X1236055Y13646D01*
X1234439Y13464D01*
X1234439Y35561D01*
G37*
%LPD*%
%LPC*%
G36*
X1227745Y13646D02*
X1227745Y13646D01*
X1225033Y14265D01*
X1222408Y15183D01*
X1219901Y16390D01*
X1217546Y17870D01*
X1215371Y19605D01*
X1213405Y21571D01*
X1211670Y23746D01*
X1210190Y26101D01*
X1208983Y28608D01*
X1208065Y31233D01*
X1207446Y33945D01*
X1207264Y35561D01*
X1229361Y35561D01*
X1229361Y13464D01*
X1227745Y13646D01*
G37*
%LPD*%
%LPC*%
G36*
X33945Y13646D02*
X33945Y13646D01*
X31233Y14265D01*
X28608Y15183D01*
X26101Y16390D01*
X23746Y17870D01*
X21571Y19605D01*
X19605Y21571D01*
X17870Y23746D01*
X16390Y26101D01*
X15183Y28608D01*
X14265Y31233D01*
X13646Y33945D01*
X13464Y35561D01*
X35561Y35561D01*
X35561Y13464D01*
X33945Y13646D01*
G37*
%LPD*%
D10*
X492500Y478200D03*
D11*
X517900Y478200D03*
X492500Y503600D03*
X517900Y503600D03*
X492500Y529000D03*
X517900Y529000D03*
X492500Y554400D03*
X517900Y554400D03*
X492500Y579800D03*
X517900Y579800D03*
X492500Y605200D03*
X517900Y605200D03*
X492500Y630600D03*
X517900Y630600D03*
X492500Y656000D03*
X517900Y656000D03*
X492500Y681400D03*
X517900Y681400D03*
X492500Y706800D03*
X517900Y706800D03*
X492500Y732200D03*
X517900Y732200D03*
X492500Y757600D03*
X517900Y757600D03*
X492500Y783000D03*
X517900Y783000D03*
X492500Y808400D03*
X517900Y808400D03*
X492500Y833800D03*
X517900Y833800D03*
X492500Y859200D03*
X517900Y859200D03*
X492500Y884600D03*
X517900Y884600D03*
X492500Y910000D03*
X517900Y910000D03*
D10*
X746500Y478200D03*
D11*
X771900Y478200D03*
X746500Y503600D03*
X771900Y503600D03*
X746500Y529000D03*
X771900Y529000D03*
X746500Y554400D03*
X771900Y554400D03*
X746500Y579800D03*
X771900Y579800D03*
X746500Y605200D03*
X771900Y605200D03*
X746500Y630600D03*
X771900Y630600D03*
X746500Y656000D03*
X771900Y656000D03*
X746500Y681400D03*
X771900Y681400D03*
X746500Y706800D03*
X771900Y706800D03*
X746500Y732200D03*
X771900Y732200D03*
X746500Y757600D03*
X771900Y757600D03*
X746500Y783000D03*
X771900Y783000D03*
X746500Y808400D03*
X771900Y808400D03*
X746500Y833800D03*
X771900Y833800D03*
X746500Y859200D03*
X771900Y859200D03*
X746500Y884600D03*
X771900Y884600D03*
X746500Y910000D03*
X771900Y910000D03*
D12*
X876300Y889000D03*
D13*
X876300Y863600D03*
X876300Y838200D03*
X876300Y812800D03*
X876300Y787400D03*
X876300Y762000D03*
X876300Y736600D03*
X876300Y711200D03*
X876300Y685800D03*
X876300Y660400D03*
X876300Y635000D03*
X876300Y609600D03*
X876300Y584200D03*
X876300Y558800D03*
X876300Y533400D03*
X876300Y508000D03*
X876300Y482600D03*
X876300Y457200D03*
X876300Y431800D03*
X876300Y406400D03*
D12*
X114300Y889000D03*
D13*
X114300Y863600D03*
X114300Y838200D03*
X114300Y812800D03*
X114300Y787400D03*
X114300Y762000D03*
X114300Y736600D03*
X114300Y711200D03*
X114300Y685800D03*
X114300Y660400D03*
X114300Y635000D03*
X114300Y609600D03*
X114300Y584200D03*
X114300Y558800D03*
X114300Y533400D03*
X114300Y508000D03*
X114300Y482600D03*
X114300Y457200D03*
X114300Y431800D03*
X114300Y406400D03*
D14*
X114300Y933450D03*
X114300Y361950D03*
X876300Y933450D03*
X876300Y361950D03*
D15*
X1072000Y558800D03*
X1087000Y558800D03*
X1072000Y774700D03*
X1087000Y774700D03*
X1072000Y673100D03*
X1087000Y673100D03*
D16*
X317500Y571500D03*
D17*
X317500Y596500D03*
X317500Y616500D03*
X317500Y641500D03*
D18*
X290400Y540800D03*
X290400Y672200D03*
D19*
X469500Y292100D03*
X444500Y292100D03*
X419500Y292100D03*
X926700Y292100D03*
X901700Y292100D03*
X876700Y292100D03*
D20*
X555879Y264160D03*
X571881Y264160D03*
X297561Y297180D03*
X281559Y297180D03*
D21*
X735600Y266300D03*
X735600Y216300D03*
X610600Y216300D03*
X610600Y266300D03*
X265700Y266300D03*
X265700Y216300D03*
X140700Y216300D03*
X140700Y266300D03*
D22*
X38100Y88900D03*
X1193800Y939800D03*
X1206500Y88900D03*
D20*
X33401Y228600D03*
X17399Y228600D03*
D23*
X38100Y977900D03*
X1231900Y977900D03*
X1231900Y38100D03*
X38100Y38100D03*
D24*
X1087000Y673100D02*
X1104900Y673100D01*
D25*
X1104900Y673100D03*
D24*
X1104900Y774700D02*
X1087000Y774700D01*
D25*
X1104900Y774700D03*
D24*
X1104900Y558800D02*
X1087000Y558800D01*
D25*
X1104900Y558800D03*
D24*
X52042Y228600D02*
X33401Y228600D01*
D25*
X52042Y228600D03*
D24*
X297561Y297180D02*
X302260Y297180D01*
X332740Y266700D01*
D25*
X332740Y266700D03*
D24*
X555674Y264365D02*
X555879Y264160D01*
X555674Y264365D02*
X535940Y264160D01*
D25*
X535940Y264160D03*
D24*
X290400Y540800D02*
X290400Y672200D01*
X141100Y266700D02*
X140700Y266300D01*
X141100Y266700D02*
X266100Y266700D01*
X274320Y274920D01*
X274320Y289941D02*
X281559Y297180D01*
X274320Y289941D02*
X274320Y274920D01*
X266100Y266700D02*
X265700Y266300D01*
X574021Y266300D02*
X610600Y266300D01*
X735600Y266300D01*
X574021Y266300D02*
X571881Y264160D01*
X985520Y558800D02*
X1072000Y558800D01*
X871671Y569976D02*
X870655Y568960D01*
X786460Y568960D02*
X771900Y554400D01*
X974344Y569976D02*
X985520Y558800D01*
X974344Y569976D02*
X871671Y569976D01*
X870655Y568960D02*
X786460Y568960D01*
X828040Y673100D02*
X1072000Y673100D01*
X828040Y673100D02*
X825500Y670560D01*
X757340Y670560D02*
X746500Y681400D01*
X757340Y670560D02*
X825500Y670560D01*
X977900Y774700D02*
X1072000Y774700D01*
X789000Y723900D02*
X771900Y706800D01*
X927100Y723900D02*
X977900Y774700D01*
X927100Y723900D02*
X789000Y723900D01*
X147320Y728980D02*
X114300Y762000D01*
X147320Y728980D02*
X360680Y728980D01*
X472440Y617220D01*
X505880Y617220D02*
X517900Y605200D01*
X505880Y617220D02*
X472440Y617220D01*
X149860Y650240D02*
X114300Y685800D01*
X149860Y650240D02*
X149860Y497840D01*
X157480Y490220D01*
X505880Y490220D02*
X517900Y478200D01*
X505880Y490220D02*
X157480Y490220D01*
X317500Y596500D02*
X429660Y596500D01*
X447040Y579120D01*
X491820Y579120D01*
X492500Y579800D01*
X414740Y616500D02*
X317500Y616500D01*
X414740Y616500D02*
X426720Y604520D01*
X491820Y604520D01*
X492500Y605200D01*
X505880Y693420D02*
X492500Y706800D01*
X505880Y693420D02*
X556260Y693420D01*
X556260Y378460D01*
X510540Y332740D01*
X464820Y332740D01*
X444500Y312420D01*
X444500Y292100D01*
X505880Y718820D02*
X492500Y732200D01*
X505880Y718820D02*
X553720Y718820D01*
X655320Y617220D01*
X655320Y469900D01*
X891315Y292100D02*
X901700Y292100D01*
X891315Y292100D02*
X880981Y302434D01*
X822786Y302434D02*
X655320Y469900D01*
X822786Y302434D02*
X880981Y302434D01*
M02*
