G04 EAGLE Gerber RS-274X export*
G75*
%MOMM*%
%FSLAX34Y34*%
%LPD*%
%INSoldermask Top*%
%IPPOS*%
%AMOC8*
5,1,8,0,0,1.08239X$1,22.5*%
G01*
%ADD10R,1.727200X1.727200*%
%ADD11P,1.869504X8X112.500000*%
%ADD12R,1.879600X1.879600*%
%ADD13C,1.879600*%
%ADD14C,4.219200*%
%ADD15R,1.003200X1.003200*%
%ADD16R,1.631200X1.631200*%
%ADD17C,1.631200*%
%ADD18C,3.519200*%
%ADD19C,1.711200*%
%ADD20C,2.703200*%
%ADD21R,1.153159X1.234441*%
%ADD22C,2.303200*%
%ADD23C,0.609600*%
%ADD24C,1.219200*%
%ADD25C,4.648200*%
%ADD26C,0.959600*%


D10*
X492500Y478200D03*
D11*
X517900Y478200D03*
X492500Y503600D03*
X517900Y503600D03*
X492500Y529000D03*
X517900Y529000D03*
X492500Y554400D03*
X517900Y554400D03*
X492500Y579800D03*
X517900Y579800D03*
X492500Y605200D03*
X517900Y605200D03*
X492500Y630600D03*
X517900Y630600D03*
X492500Y656000D03*
X517900Y656000D03*
X492500Y681400D03*
X517900Y681400D03*
X492500Y706800D03*
X517900Y706800D03*
X492500Y732200D03*
X517900Y732200D03*
X492500Y757600D03*
X517900Y757600D03*
X492500Y783000D03*
X517900Y783000D03*
X492500Y808400D03*
X517900Y808400D03*
X492500Y833800D03*
X517900Y833800D03*
X492500Y859200D03*
X517900Y859200D03*
X492500Y884600D03*
X517900Y884600D03*
X492500Y910000D03*
X517900Y910000D03*
D10*
X746500Y478200D03*
D11*
X771900Y478200D03*
X746500Y503600D03*
X771900Y503600D03*
X746500Y529000D03*
X771900Y529000D03*
X746500Y554400D03*
X771900Y554400D03*
X746500Y579800D03*
X771900Y579800D03*
X746500Y605200D03*
X771900Y605200D03*
X746500Y630600D03*
X771900Y630600D03*
X746500Y656000D03*
X771900Y656000D03*
X746500Y681400D03*
X771900Y681400D03*
X746500Y706800D03*
X771900Y706800D03*
X746500Y732200D03*
X771900Y732200D03*
X746500Y757600D03*
X771900Y757600D03*
X746500Y783000D03*
X771900Y783000D03*
X746500Y808400D03*
X771900Y808400D03*
X746500Y833800D03*
X771900Y833800D03*
X746500Y859200D03*
X771900Y859200D03*
X746500Y884600D03*
X771900Y884600D03*
X746500Y910000D03*
X771900Y910000D03*
D12*
X876300Y889000D03*
D13*
X876300Y863600D03*
X876300Y838200D03*
X876300Y812800D03*
X876300Y787400D03*
X876300Y762000D03*
X876300Y736600D03*
X876300Y711200D03*
X876300Y685800D03*
X876300Y660400D03*
X876300Y635000D03*
X876300Y609600D03*
X876300Y584200D03*
X876300Y558800D03*
X876300Y533400D03*
X876300Y508000D03*
X876300Y482600D03*
X876300Y457200D03*
X876300Y431800D03*
X876300Y406400D03*
D12*
X114300Y889000D03*
D13*
X114300Y863600D03*
X114300Y838200D03*
X114300Y812800D03*
X114300Y787400D03*
X114300Y762000D03*
X114300Y736600D03*
X114300Y711200D03*
X114300Y685800D03*
X114300Y660400D03*
X114300Y635000D03*
X114300Y609600D03*
X114300Y584200D03*
X114300Y558800D03*
X114300Y533400D03*
X114300Y508000D03*
X114300Y482600D03*
X114300Y457200D03*
X114300Y431800D03*
X114300Y406400D03*
D14*
X114300Y933450D03*
X114300Y361950D03*
X876300Y933450D03*
X876300Y361950D03*
D15*
X1072000Y558800D03*
X1087000Y558800D03*
X1072000Y774700D03*
X1087000Y774700D03*
X1072000Y673100D03*
X1087000Y673100D03*
D16*
X317500Y571500D03*
D17*
X317500Y596500D03*
X317500Y616500D03*
X317500Y641500D03*
D18*
X290400Y540800D03*
X290400Y672200D03*
D19*
X469500Y292100D03*
X444500Y292100D03*
X419500Y292100D03*
D20*
X494500Y222100D03*
X394500Y222100D03*
D19*
X926700Y292100D03*
X901700Y292100D03*
X876700Y292100D03*
D20*
X951700Y222100D03*
X851700Y222100D03*
D21*
X555879Y264160D03*
X571881Y264160D03*
X297561Y297180D03*
X281559Y297180D03*
D22*
X735600Y266300D03*
X735600Y216300D03*
X610600Y216300D03*
X610600Y266300D03*
X265700Y266300D03*
X265700Y216300D03*
X140700Y216300D03*
X140700Y266300D03*
D23*
X30480Y88900D02*
X30482Y89087D01*
X30489Y89274D01*
X30501Y89461D01*
X30517Y89647D01*
X30537Y89833D01*
X30562Y90018D01*
X30592Y90203D01*
X30626Y90387D01*
X30665Y90570D01*
X30708Y90752D01*
X30756Y90932D01*
X30808Y91112D01*
X30865Y91290D01*
X30925Y91467D01*
X30991Y91642D01*
X31060Y91816D01*
X31134Y91988D01*
X31212Y92158D01*
X31294Y92326D01*
X31380Y92492D01*
X31470Y92656D01*
X31564Y92817D01*
X31662Y92977D01*
X31764Y93133D01*
X31870Y93288D01*
X31980Y93439D01*
X32093Y93588D01*
X32210Y93734D01*
X32330Y93877D01*
X32454Y94017D01*
X32581Y94154D01*
X32712Y94288D01*
X32846Y94419D01*
X32983Y94546D01*
X33123Y94670D01*
X33266Y94790D01*
X33412Y94907D01*
X33561Y95020D01*
X33712Y95130D01*
X33867Y95236D01*
X34023Y95338D01*
X34183Y95436D01*
X34344Y95530D01*
X34508Y95620D01*
X34674Y95706D01*
X34842Y95788D01*
X35012Y95866D01*
X35184Y95940D01*
X35358Y96009D01*
X35533Y96075D01*
X35710Y96135D01*
X35888Y96192D01*
X36068Y96244D01*
X36248Y96292D01*
X36430Y96335D01*
X36613Y96374D01*
X36797Y96408D01*
X36982Y96438D01*
X37167Y96463D01*
X37353Y96483D01*
X37539Y96499D01*
X37726Y96511D01*
X37913Y96518D01*
X38100Y96520D01*
X38287Y96518D01*
X38474Y96511D01*
X38661Y96499D01*
X38847Y96483D01*
X39033Y96463D01*
X39218Y96438D01*
X39403Y96408D01*
X39587Y96374D01*
X39770Y96335D01*
X39952Y96292D01*
X40132Y96244D01*
X40312Y96192D01*
X40490Y96135D01*
X40667Y96075D01*
X40842Y96009D01*
X41016Y95940D01*
X41188Y95866D01*
X41358Y95788D01*
X41526Y95706D01*
X41692Y95620D01*
X41856Y95530D01*
X42017Y95436D01*
X42177Y95338D01*
X42333Y95236D01*
X42488Y95130D01*
X42639Y95020D01*
X42788Y94907D01*
X42934Y94790D01*
X43077Y94670D01*
X43217Y94546D01*
X43354Y94419D01*
X43488Y94288D01*
X43619Y94154D01*
X43746Y94017D01*
X43870Y93877D01*
X43990Y93734D01*
X44107Y93588D01*
X44220Y93439D01*
X44330Y93288D01*
X44436Y93133D01*
X44538Y92977D01*
X44636Y92817D01*
X44730Y92656D01*
X44820Y92492D01*
X44906Y92326D01*
X44988Y92158D01*
X45066Y91988D01*
X45140Y91816D01*
X45209Y91642D01*
X45275Y91467D01*
X45335Y91290D01*
X45392Y91112D01*
X45444Y90932D01*
X45492Y90752D01*
X45535Y90570D01*
X45574Y90387D01*
X45608Y90203D01*
X45638Y90018D01*
X45663Y89833D01*
X45683Y89647D01*
X45699Y89461D01*
X45711Y89274D01*
X45718Y89087D01*
X45720Y88900D01*
X45718Y88713D01*
X45711Y88526D01*
X45699Y88339D01*
X45683Y88153D01*
X45663Y87967D01*
X45638Y87782D01*
X45608Y87597D01*
X45574Y87413D01*
X45535Y87230D01*
X45492Y87048D01*
X45444Y86868D01*
X45392Y86688D01*
X45335Y86510D01*
X45275Y86333D01*
X45209Y86158D01*
X45140Y85984D01*
X45066Y85812D01*
X44988Y85642D01*
X44906Y85474D01*
X44820Y85308D01*
X44730Y85144D01*
X44636Y84983D01*
X44538Y84823D01*
X44436Y84667D01*
X44330Y84512D01*
X44220Y84361D01*
X44107Y84212D01*
X43990Y84066D01*
X43870Y83923D01*
X43746Y83783D01*
X43619Y83646D01*
X43488Y83512D01*
X43354Y83381D01*
X43217Y83254D01*
X43077Y83130D01*
X42934Y83010D01*
X42788Y82893D01*
X42639Y82780D01*
X42488Y82670D01*
X42333Y82564D01*
X42177Y82462D01*
X42017Y82364D01*
X41856Y82270D01*
X41692Y82180D01*
X41526Y82094D01*
X41358Y82012D01*
X41188Y81934D01*
X41016Y81860D01*
X40842Y81791D01*
X40667Y81725D01*
X40490Y81665D01*
X40312Y81608D01*
X40132Y81556D01*
X39952Y81508D01*
X39770Y81465D01*
X39587Y81426D01*
X39403Y81392D01*
X39218Y81362D01*
X39033Y81337D01*
X38847Y81317D01*
X38661Y81301D01*
X38474Y81289D01*
X38287Y81282D01*
X38100Y81280D01*
X37913Y81282D01*
X37726Y81289D01*
X37539Y81301D01*
X37353Y81317D01*
X37167Y81337D01*
X36982Y81362D01*
X36797Y81392D01*
X36613Y81426D01*
X36430Y81465D01*
X36248Y81508D01*
X36068Y81556D01*
X35888Y81608D01*
X35710Y81665D01*
X35533Y81725D01*
X35358Y81791D01*
X35184Y81860D01*
X35012Y81934D01*
X34842Y82012D01*
X34674Y82094D01*
X34508Y82180D01*
X34344Y82270D01*
X34183Y82364D01*
X34023Y82462D01*
X33867Y82564D01*
X33712Y82670D01*
X33561Y82780D01*
X33412Y82893D01*
X33266Y83010D01*
X33123Y83130D01*
X32983Y83254D01*
X32846Y83381D01*
X32712Y83512D01*
X32581Y83646D01*
X32454Y83783D01*
X32330Y83923D01*
X32210Y84066D01*
X32093Y84212D01*
X31980Y84361D01*
X31870Y84512D01*
X31764Y84667D01*
X31662Y84823D01*
X31564Y84983D01*
X31470Y85144D01*
X31380Y85308D01*
X31294Y85474D01*
X31212Y85642D01*
X31134Y85812D01*
X31060Y85984D01*
X30991Y86158D01*
X30925Y86333D01*
X30865Y86510D01*
X30808Y86688D01*
X30756Y86868D01*
X30708Y87048D01*
X30665Y87230D01*
X30626Y87413D01*
X30592Y87597D01*
X30562Y87782D01*
X30537Y87967D01*
X30517Y88153D01*
X30501Y88339D01*
X30489Y88526D01*
X30482Y88713D01*
X30480Y88900D01*
D24*
X38100Y88900D03*
D23*
X1186180Y939800D02*
X1186182Y939987D01*
X1186189Y940174D01*
X1186201Y940361D01*
X1186217Y940547D01*
X1186237Y940733D01*
X1186262Y940918D01*
X1186292Y941103D01*
X1186326Y941287D01*
X1186365Y941470D01*
X1186408Y941652D01*
X1186456Y941832D01*
X1186508Y942012D01*
X1186565Y942190D01*
X1186625Y942367D01*
X1186691Y942542D01*
X1186760Y942716D01*
X1186834Y942888D01*
X1186912Y943058D01*
X1186994Y943226D01*
X1187080Y943392D01*
X1187170Y943556D01*
X1187264Y943717D01*
X1187362Y943877D01*
X1187464Y944033D01*
X1187570Y944188D01*
X1187680Y944339D01*
X1187793Y944488D01*
X1187910Y944634D01*
X1188030Y944777D01*
X1188154Y944917D01*
X1188281Y945054D01*
X1188412Y945188D01*
X1188546Y945319D01*
X1188683Y945446D01*
X1188823Y945570D01*
X1188966Y945690D01*
X1189112Y945807D01*
X1189261Y945920D01*
X1189412Y946030D01*
X1189567Y946136D01*
X1189723Y946238D01*
X1189883Y946336D01*
X1190044Y946430D01*
X1190208Y946520D01*
X1190374Y946606D01*
X1190542Y946688D01*
X1190712Y946766D01*
X1190884Y946840D01*
X1191058Y946909D01*
X1191233Y946975D01*
X1191410Y947035D01*
X1191588Y947092D01*
X1191768Y947144D01*
X1191948Y947192D01*
X1192130Y947235D01*
X1192313Y947274D01*
X1192497Y947308D01*
X1192682Y947338D01*
X1192867Y947363D01*
X1193053Y947383D01*
X1193239Y947399D01*
X1193426Y947411D01*
X1193613Y947418D01*
X1193800Y947420D01*
X1193987Y947418D01*
X1194174Y947411D01*
X1194361Y947399D01*
X1194547Y947383D01*
X1194733Y947363D01*
X1194918Y947338D01*
X1195103Y947308D01*
X1195287Y947274D01*
X1195470Y947235D01*
X1195652Y947192D01*
X1195832Y947144D01*
X1196012Y947092D01*
X1196190Y947035D01*
X1196367Y946975D01*
X1196542Y946909D01*
X1196716Y946840D01*
X1196888Y946766D01*
X1197058Y946688D01*
X1197226Y946606D01*
X1197392Y946520D01*
X1197556Y946430D01*
X1197717Y946336D01*
X1197877Y946238D01*
X1198033Y946136D01*
X1198188Y946030D01*
X1198339Y945920D01*
X1198488Y945807D01*
X1198634Y945690D01*
X1198777Y945570D01*
X1198917Y945446D01*
X1199054Y945319D01*
X1199188Y945188D01*
X1199319Y945054D01*
X1199446Y944917D01*
X1199570Y944777D01*
X1199690Y944634D01*
X1199807Y944488D01*
X1199920Y944339D01*
X1200030Y944188D01*
X1200136Y944033D01*
X1200238Y943877D01*
X1200336Y943717D01*
X1200430Y943556D01*
X1200520Y943392D01*
X1200606Y943226D01*
X1200688Y943058D01*
X1200766Y942888D01*
X1200840Y942716D01*
X1200909Y942542D01*
X1200975Y942367D01*
X1201035Y942190D01*
X1201092Y942012D01*
X1201144Y941832D01*
X1201192Y941652D01*
X1201235Y941470D01*
X1201274Y941287D01*
X1201308Y941103D01*
X1201338Y940918D01*
X1201363Y940733D01*
X1201383Y940547D01*
X1201399Y940361D01*
X1201411Y940174D01*
X1201418Y939987D01*
X1201420Y939800D01*
X1201418Y939613D01*
X1201411Y939426D01*
X1201399Y939239D01*
X1201383Y939053D01*
X1201363Y938867D01*
X1201338Y938682D01*
X1201308Y938497D01*
X1201274Y938313D01*
X1201235Y938130D01*
X1201192Y937948D01*
X1201144Y937768D01*
X1201092Y937588D01*
X1201035Y937410D01*
X1200975Y937233D01*
X1200909Y937058D01*
X1200840Y936884D01*
X1200766Y936712D01*
X1200688Y936542D01*
X1200606Y936374D01*
X1200520Y936208D01*
X1200430Y936044D01*
X1200336Y935883D01*
X1200238Y935723D01*
X1200136Y935567D01*
X1200030Y935412D01*
X1199920Y935261D01*
X1199807Y935112D01*
X1199690Y934966D01*
X1199570Y934823D01*
X1199446Y934683D01*
X1199319Y934546D01*
X1199188Y934412D01*
X1199054Y934281D01*
X1198917Y934154D01*
X1198777Y934030D01*
X1198634Y933910D01*
X1198488Y933793D01*
X1198339Y933680D01*
X1198188Y933570D01*
X1198033Y933464D01*
X1197877Y933362D01*
X1197717Y933264D01*
X1197556Y933170D01*
X1197392Y933080D01*
X1197226Y932994D01*
X1197058Y932912D01*
X1196888Y932834D01*
X1196716Y932760D01*
X1196542Y932691D01*
X1196367Y932625D01*
X1196190Y932565D01*
X1196012Y932508D01*
X1195832Y932456D01*
X1195652Y932408D01*
X1195470Y932365D01*
X1195287Y932326D01*
X1195103Y932292D01*
X1194918Y932262D01*
X1194733Y932237D01*
X1194547Y932217D01*
X1194361Y932201D01*
X1194174Y932189D01*
X1193987Y932182D01*
X1193800Y932180D01*
X1193613Y932182D01*
X1193426Y932189D01*
X1193239Y932201D01*
X1193053Y932217D01*
X1192867Y932237D01*
X1192682Y932262D01*
X1192497Y932292D01*
X1192313Y932326D01*
X1192130Y932365D01*
X1191948Y932408D01*
X1191768Y932456D01*
X1191588Y932508D01*
X1191410Y932565D01*
X1191233Y932625D01*
X1191058Y932691D01*
X1190884Y932760D01*
X1190712Y932834D01*
X1190542Y932912D01*
X1190374Y932994D01*
X1190208Y933080D01*
X1190044Y933170D01*
X1189883Y933264D01*
X1189723Y933362D01*
X1189567Y933464D01*
X1189412Y933570D01*
X1189261Y933680D01*
X1189112Y933793D01*
X1188966Y933910D01*
X1188823Y934030D01*
X1188683Y934154D01*
X1188546Y934281D01*
X1188412Y934412D01*
X1188281Y934546D01*
X1188154Y934683D01*
X1188030Y934823D01*
X1187910Y934966D01*
X1187793Y935112D01*
X1187680Y935261D01*
X1187570Y935412D01*
X1187464Y935567D01*
X1187362Y935723D01*
X1187264Y935883D01*
X1187170Y936044D01*
X1187080Y936208D01*
X1186994Y936374D01*
X1186912Y936542D01*
X1186834Y936712D01*
X1186760Y936884D01*
X1186691Y937058D01*
X1186625Y937233D01*
X1186565Y937410D01*
X1186508Y937588D01*
X1186456Y937768D01*
X1186408Y937948D01*
X1186365Y938130D01*
X1186326Y938313D01*
X1186292Y938497D01*
X1186262Y938682D01*
X1186237Y938867D01*
X1186217Y939053D01*
X1186201Y939239D01*
X1186189Y939426D01*
X1186182Y939613D01*
X1186180Y939800D01*
D24*
X1193800Y939800D03*
D23*
X1198880Y88900D02*
X1198882Y89087D01*
X1198889Y89274D01*
X1198901Y89461D01*
X1198917Y89647D01*
X1198937Y89833D01*
X1198962Y90018D01*
X1198992Y90203D01*
X1199026Y90387D01*
X1199065Y90570D01*
X1199108Y90752D01*
X1199156Y90932D01*
X1199208Y91112D01*
X1199265Y91290D01*
X1199325Y91467D01*
X1199391Y91642D01*
X1199460Y91816D01*
X1199534Y91988D01*
X1199612Y92158D01*
X1199694Y92326D01*
X1199780Y92492D01*
X1199870Y92656D01*
X1199964Y92817D01*
X1200062Y92977D01*
X1200164Y93133D01*
X1200270Y93288D01*
X1200380Y93439D01*
X1200493Y93588D01*
X1200610Y93734D01*
X1200730Y93877D01*
X1200854Y94017D01*
X1200981Y94154D01*
X1201112Y94288D01*
X1201246Y94419D01*
X1201383Y94546D01*
X1201523Y94670D01*
X1201666Y94790D01*
X1201812Y94907D01*
X1201961Y95020D01*
X1202112Y95130D01*
X1202267Y95236D01*
X1202423Y95338D01*
X1202583Y95436D01*
X1202744Y95530D01*
X1202908Y95620D01*
X1203074Y95706D01*
X1203242Y95788D01*
X1203412Y95866D01*
X1203584Y95940D01*
X1203758Y96009D01*
X1203933Y96075D01*
X1204110Y96135D01*
X1204288Y96192D01*
X1204468Y96244D01*
X1204648Y96292D01*
X1204830Y96335D01*
X1205013Y96374D01*
X1205197Y96408D01*
X1205382Y96438D01*
X1205567Y96463D01*
X1205753Y96483D01*
X1205939Y96499D01*
X1206126Y96511D01*
X1206313Y96518D01*
X1206500Y96520D01*
X1206687Y96518D01*
X1206874Y96511D01*
X1207061Y96499D01*
X1207247Y96483D01*
X1207433Y96463D01*
X1207618Y96438D01*
X1207803Y96408D01*
X1207987Y96374D01*
X1208170Y96335D01*
X1208352Y96292D01*
X1208532Y96244D01*
X1208712Y96192D01*
X1208890Y96135D01*
X1209067Y96075D01*
X1209242Y96009D01*
X1209416Y95940D01*
X1209588Y95866D01*
X1209758Y95788D01*
X1209926Y95706D01*
X1210092Y95620D01*
X1210256Y95530D01*
X1210417Y95436D01*
X1210577Y95338D01*
X1210733Y95236D01*
X1210888Y95130D01*
X1211039Y95020D01*
X1211188Y94907D01*
X1211334Y94790D01*
X1211477Y94670D01*
X1211617Y94546D01*
X1211754Y94419D01*
X1211888Y94288D01*
X1212019Y94154D01*
X1212146Y94017D01*
X1212270Y93877D01*
X1212390Y93734D01*
X1212507Y93588D01*
X1212620Y93439D01*
X1212730Y93288D01*
X1212836Y93133D01*
X1212938Y92977D01*
X1213036Y92817D01*
X1213130Y92656D01*
X1213220Y92492D01*
X1213306Y92326D01*
X1213388Y92158D01*
X1213466Y91988D01*
X1213540Y91816D01*
X1213609Y91642D01*
X1213675Y91467D01*
X1213735Y91290D01*
X1213792Y91112D01*
X1213844Y90932D01*
X1213892Y90752D01*
X1213935Y90570D01*
X1213974Y90387D01*
X1214008Y90203D01*
X1214038Y90018D01*
X1214063Y89833D01*
X1214083Y89647D01*
X1214099Y89461D01*
X1214111Y89274D01*
X1214118Y89087D01*
X1214120Y88900D01*
X1214118Y88713D01*
X1214111Y88526D01*
X1214099Y88339D01*
X1214083Y88153D01*
X1214063Y87967D01*
X1214038Y87782D01*
X1214008Y87597D01*
X1213974Y87413D01*
X1213935Y87230D01*
X1213892Y87048D01*
X1213844Y86868D01*
X1213792Y86688D01*
X1213735Y86510D01*
X1213675Y86333D01*
X1213609Y86158D01*
X1213540Y85984D01*
X1213466Y85812D01*
X1213388Y85642D01*
X1213306Y85474D01*
X1213220Y85308D01*
X1213130Y85144D01*
X1213036Y84983D01*
X1212938Y84823D01*
X1212836Y84667D01*
X1212730Y84512D01*
X1212620Y84361D01*
X1212507Y84212D01*
X1212390Y84066D01*
X1212270Y83923D01*
X1212146Y83783D01*
X1212019Y83646D01*
X1211888Y83512D01*
X1211754Y83381D01*
X1211617Y83254D01*
X1211477Y83130D01*
X1211334Y83010D01*
X1211188Y82893D01*
X1211039Y82780D01*
X1210888Y82670D01*
X1210733Y82564D01*
X1210577Y82462D01*
X1210417Y82364D01*
X1210256Y82270D01*
X1210092Y82180D01*
X1209926Y82094D01*
X1209758Y82012D01*
X1209588Y81934D01*
X1209416Y81860D01*
X1209242Y81791D01*
X1209067Y81725D01*
X1208890Y81665D01*
X1208712Y81608D01*
X1208532Y81556D01*
X1208352Y81508D01*
X1208170Y81465D01*
X1207987Y81426D01*
X1207803Y81392D01*
X1207618Y81362D01*
X1207433Y81337D01*
X1207247Y81317D01*
X1207061Y81301D01*
X1206874Y81289D01*
X1206687Y81282D01*
X1206500Y81280D01*
X1206313Y81282D01*
X1206126Y81289D01*
X1205939Y81301D01*
X1205753Y81317D01*
X1205567Y81337D01*
X1205382Y81362D01*
X1205197Y81392D01*
X1205013Y81426D01*
X1204830Y81465D01*
X1204648Y81508D01*
X1204468Y81556D01*
X1204288Y81608D01*
X1204110Y81665D01*
X1203933Y81725D01*
X1203758Y81791D01*
X1203584Y81860D01*
X1203412Y81934D01*
X1203242Y82012D01*
X1203074Y82094D01*
X1202908Y82180D01*
X1202744Y82270D01*
X1202583Y82364D01*
X1202423Y82462D01*
X1202267Y82564D01*
X1202112Y82670D01*
X1201961Y82780D01*
X1201812Y82893D01*
X1201666Y83010D01*
X1201523Y83130D01*
X1201383Y83254D01*
X1201246Y83381D01*
X1201112Y83512D01*
X1200981Y83646D01*
X1200854Y83783D01*
X1200730Y83923D01*
X1200610Y84066D01*
X1200493Y84212D01*
X1200380Y84361D01*
X1200270Y84512D01*
X1200164Y84667D01*
X1200062Y84823D01*
X1199964Y84983D01*
X1199870Y85144D01*
X1199780Y85308D01*
X1199694Y85474D01*
X1199612Y85642D01*
X1199534Y85812D01*
X1199460Y85984D01*
X1199391Y86158D01*
X1199325Y86333D01*
X1199265Y86510D01*
X1199208Y86688D01*
X1199156Y86868D01*
X1199108Y87048D01*
X1199065Y87230D01*
X1199026Y87413D01*
X1198992Y87597D01*
X1198962Y87782D01*
X1198937Y87967D01*
X1198917Y88153D01*
X1198901Y88339D01*
X1198889Y88526D01*
X1198882Y88713D01*
X1198880Y88900D01*
D24*
X1206500Y88900D03*
D21*
X33401Y228600D03*
X17399Y228600D03*
D25*
X38100Y977900D03*
X1231900Y977900D03*
X1231900Y38100D03*
X38100Y38100D03*
D26*
X1104900Y673100D03*
X1104900Y774700D03*
X1104900Y558800D03*
X52042Y228600D03*
X332740Y266700D03*
X535940Y264160D03*
M02*
